<?xml version="1.0" encoding="UTF-8" standalone="no"?>
<!DOCTYPE svg PUBLIC "-//W3C//DTD SVG 1.1//EN" "http://www.w3.org/Graphics/SVG/1.1/DTD/svg11.dtd">
<svg width="100%" height="100%" viewBox="0 0 197 197" version="1.1" xmlns="http://www.w3.org/2000/svg" xmlns:xlink="http://www.w3.org/1999/xlink" xml:space="preserve" xmlns:serif="http://www.serif.com/" style="fill-rule:evenodd;clip-rule:evenodd;stroke-linejoin:round;stroke-miterlimit:2;">
    <g transform="matrix(1,0,0,1,-277,0)">
        <g transform="matrix(1,0,0,1,199.468,-0.89615)">
            <rect id="astroarch-w" x="77.619" y="0.896" width="196.871" height="196.876" style="fill:none;"/>
            <clipPath id="_clip1">
                <rect id="astroarch-w1" serif:id="astroarch-w" x="77.619" y="0.896" width="196.871" height="196.876"/>
            </clipPath>
            <g clip-path="url(#_clip1)">
                <path d="M219.737,94.825C227.894,110.65 238.165,130.103 251.579,155.078C244.929,151.078 236.369,147.518 224.459,144.418C241.799,153.318 250.279,161.538 258.429,167.858C263.599,177.448 269.039,187.498 275.109,198.668C244.349,180.908 209.204,162.943 176.674,162.943C147.966,162.943 109.439,180.658 78.238,198.668C90.86,175.989 101.45,156.772 110.425,140.271C114.547,143.21 119.502,143.997 123.511,142.22C123.736,142.148 123.955,142.057 124.165,141.946L142.531,132.283C143.742,131.646 144.543,130.434 144.655,129.07C144.708,128.429 144.604,127.796 144.367,127.219L162.549,117.653C162.742,117.551 162.924,117.435 163.095,117.307C164.889,117.85 166.716,118.027 168.461,117.811L149.583,154.244C147.932,157.429 149.178,161.355 152.364,163.006C155.549,164.656 159.475,163.41 161.125,160.225L174.487,134.438L174.338,147.792C174.298,151.379 177.178,154.324 180.765,154.364C184.353,154.404 187.298,151.524 187.338,147.937L187.534,130.35L197.874,156.856C199.177,160.198 202.949,161.853 206.291,160.549C209.633,159.246 211.288,155.474 209.985,152.132L193.813,110.675C193.169,109.023 191.921,107.784 190.421,107.11L203.329,100.318C203.611,100.17 203.869,99.991 204.101,99.788C206.793,100.238 209.474,99.962 211.867,98.886C212.107,98.813 212.341,98.717 212.565,98.599L219.737,94.825ZM130.35,103.084C138.669,87.248 144.933,74.809 150.019,64.198C155.893,69.135 163.532,73.88 174.315,78.618L156.99,87.733C156.777,87.845 156.577,87.975 156.392,88.119C153.98,89.603 152.225,92.017 151.307,94.904C151.105,94.972 150.906,95.056 150.713,95.158L132.531,104.724C132.19,104.202 131.727,103.759 131.169,103.439C130.907,103.289 130.632,103.17 130.35,103.084ZM175.202,78.151C164.966,70.663 158.346,64.008 152.859,58.198C162.619,37.351 167.909,23.278 176.679,1.792L176.679,1.798C186.122,23.968 191.79,38.095 202.604,60.593L194.743,64.728C194.516,64.848 194.304,64.987 194.109,65.143C191.869,66.505 190.123,68.558 188.97,71.03C188.671,71.107 188.378,71.218 188.097,71.366L175.202,78.151Z" style="fill:rgb(23,147,209);"/>
                <g id="telescopio" transform="matrix(1,0,0,1,77.619,0.89615)">
                    <path d="M79.955,157.488C79.32,158.713 77.81,159.193 76.585,158.558C75.36,157.923 74.881,156.413 75.515,155.188L95.832,115.98C96.071,115.518 96.447,115.143 96.909,114.906L102.441,112.064C103.221,111.664 104.153,111.701 104.898,112.162C105.643,112.623 106.093,113.44 106.083,114.316L105.719,146.996C105.703,148.376 104.571,149.483 103.191,149.468C101.811,149.453 100.704,148.32 100.719,146.94L101.037,118.407L99.904,118.989L79.955,157.488ZM107.809,113.05C107.308,111.764 107.944,110.314 109.23,109.812C110.515,109.311 111.966,109.947 112.467,111.233L128.639,152.689C129.141,153.975 128.504,155.425 127.219,155.927C125.933,156.428 124.482,155.792 123.981,154.506L107.809,113.05ZM133.061,94.121C127.467,97.064 119.778,93.47 115.9,86.1C112.023,78.73 113.416,70.358 119.009,67.415L118.987,67.372L165.495,42.901L165.518,42.944C159.924,45.887 158.531,54.26 162.409,61.629C166.286,68.999 173.976,72.593 179.569,69.65L179.591,69.692L133.083,94.163L133.061,94.121ZM173.251,66.763C175.232,64.681 175.207,60.233 173.007,56.053C170.808,51.872 167.156,49.333 164.319,49.786C164.842,48.206 165.784,46.878 167.196,46.135C168.613,45.389 170.246,45.367 171.848,45.834C174.824,46.703 177.663,49.175 179.487,52.643C181.312,56.111 181.743,59.851 180.772,62.795C180.25,64.38 179.307,65.714 177.89,66.459C176.477,67.203 174.849,67.226 173.251,66.763ZM92.723,112.214C88.157,114.616 81.88,111.682 78.714,105.666C75.549,99.649 76.686,92.814 81.252,90.412L81.234,90.377L112.34,74.01C110.999,77.801 111.395,82.699 113.773,87.219C116.152,91.74 119.964,94.839 123.848,95.882L92.742,112.248L92.723,112.214ZM44.665,137.476C40.107,139.874 33.84,136.945 30.68,130.939C27.52,124.933 28.655,118.11 33.214,115.711L33.196,115.677L51.562,106.013C51.562,106.034 51.563,106.055 51.565,106.076C47.372,108.67 46.41,115.245 49.467,121.055C52.524,126.864 58.487,129.795 63,127.809C63.016,127.822 63.033,127.834 63.049,127.847L44.683,137.51L44.665,137.476ZM39.945,133.218L49.435,128.224C50.022,127.915 50.248,127.188 49.939,126.601C49.63,126.014 48.903,125.788 48.316,126.097L38.825,131.09C38.238,131.399 38.013,132.127 38.321,132.714C38.63,133.301 39.358,133.526 39.945,133.218ZM34.892,123.871L44.382,118.877C44.969,118.569 45.195,117.841 44.886,117.254C44.577,116.667 43.85,116.441 43.263,116.75L33.773,121.744C33.186,122.053 32.96,122.78 33.269,123.367C33.578,123.954 34.305,124.18 34.892,123.871ZM36.396,128.996L45.886,124.003C46.473,123.694 46.699,122.966 46.39,122.379C46.081,121.792 45.354,121.567 44.767,121.876L35.277,126.869C34.69,127.178 34.464,127.905 34.773,128.492C35.082,129.079 35.809,129.305 36.396,128.996ZM62.07,124.234C58.851,125.927 54.427,123.859 52.196,119.619C49.965,115.378 50.766,110.561 53.985,108.867L53.972,108.843L74.957,97.802C74.497,100.563 75.004,103.776 76.587,106.785C78.17,109.794 80.531,112.032 83.067,113.217L62.082,124.258L62.07,124.234Z" style="fill:white;"/>
                </g>
            </g>
        </g>
    </g>
</svg>
